Jump_normalized_Motion_pl04
version=1
nRows=21
nColumns=43
inDegrees=yes
endheader
time		pelvis_tilt		pelvis_list		pelvis_rotation		pelvis_tx		pelvis_ty		pelvis_tz		hip_flexion_r		hip_adduction_r		hip_rotation_r		knee_angle_r		ankle_angle_r		subtalar_angle_r		mtp_angle_r		hip_flexion_l		hip_adduction_l		hip_rotation_l		knee_angle_l		ankle_angle_l		subtalar_angle_l		mtp_angle_l		lumbar_extension		lumbar_bending		lumbar_rotation		neck_flexion		neck_lateral_bending		neck_rotation		arm_flex_r		arm_add_r		arm_rot_r		elbow_flex_r		pro_sup_r		wrist_flex_r		wrist_dev_r		hand_finger_flex_r		arm_flex_l		arm_add_l		arm_rot_l		elbow_flex_l		pro_sup_l		wrist_flex_l		wrist_dev_l		hand_finger_flex_l		
0.074167		3.172828		-13.345578		89.881345		0.073793		1.765564		1.796077		78.534370		-1.746284		1.493373		-147.110250		24.435492		6.175171		20.078828		78.758363		-7.960583		20.283535		-147.283161		20.015362		24.462452		24.108307		-49.307459		0.207444		4.958595		40.530957		1.786485		-5.520556		63.221259		-26.573181		-2.233543		79.655772		107.139932		-6.029617		-15.422022		-9.096772		70.000893		-21.512573		12.577280		58.935372		107.185294		-18.099014		-8.338582		6.048702		
0.076338		3.261696		-13.419121		89.787288		0.073668		1.766572		1.793463		78.092722		-1.622308		1.478067		-146.892812		24.500890		6.286919		20.143157		78.467399		-8.032253		20.228453		-147.132841		19.689814		24.277462		24.126749		-49.164826		0.272207		5.084827		40.451393		1.726835		-5.434749		63.931828		-26.650523		-1.883406		79.674864		107.286267		-5.995576		-15.324903		-9.083795		70.337328		-21.471460		12.517411		58.974486		107.190852		-18.073872		-8.295428		6.154451		
0.078510		3.340373		-13.456114		89.700612		0.073523		1.767622		1.790764		77.599972		-1.514627		1.485523		-146.674962		24.575784		6.460178		20.261187		78.131207		-8.082690		20.147671		-146.978897		19.304149		24.004305		24.194885		-49.053731		0.346145		5.179508		40.306276		1.631520		-5.311432		64.650301		-26.712588		-1.490863		79.690402		107.489974		-6.001938		-15.217866		-9.094641		70.639008		-21.465710		12.433147		59.050688		107.190068		-18.041000		-8.242654		6.345891		
0.080682		3.405007		-13.487973		89.617030		0.073379		1.768703		1.788001		77.091082		-1.418091		1.526557		-146.454454		24.644798		6.723183		20.516218		77.786547		-8.112497		20.020428		-146.810646		18.879678		23.627050		24.411343		-48.943918		0.419884		5.232731		40.147870		1.512148		-5.143886		65.373257		-26.695134		-1.093406		79.669334		107.787375		-6.079957		-15.104358		-9.154996		70.906697		-21.489603		12.303826		59.162356		107.186412		-18.030456		-8.165251		6.747120		
0.082854		3.450227		-13.583821		89.491589		0.073261		1.769770		1.785235		76.671360		-1.303031		1.602675		-146.221258		24.671117		6.999590		20.893148		77.495845		-8.173132		19.864220		-146.625890		18.488219		23.276318		24.775152		-48.774282		0.447124		5.291043		40.121619		1.455187		-4.994304		66.091841		-26.596213		-0.764764		79.595480		108.131142		-6.171430		-15.020246		-9.244127		71.173801		-21.488446		12.157878		59.252792		107.185631		-18.073095		-8.065387		7.326496		
0.085025		3.491562		-13.725968		89.324798		0.073216		1.770809		1.782415		76.314209		-1.138036		1.643171		-145.978976		24.644061		7.007834		20.947664		77.241060		-8.284153		19.768497		-146.430690		18.166014		23.305337		24.796139		-48.561959		0.396409		5.460936		40.150121		1.532678		-4.996702		66.687637		-26.720883		-0.505469		79.631100		108.237836		-6.032645		-15.018571		-9.201286		71.484177		-21.395226		12.148478		59.310414		107.195460		-18.091433		-8.055612		7.410774		
0.087197		3.541753		-13.776193		89.192950		0.073111		1.771915		1.779498		75.837743		-1.018908		1.671224		-145.742766		24.639387		7.061424		21.030955		76.920881		-8.329939		19.718210		-146.240942		17.659813		23.305013		24.820804		-48.427570		0.398268		5.606315		40.080619		1.500240		-4.957851		67.322932		-26.788610		-0.219369		79.619889		108.395094		-5.909624		-14.979430		-9.177402		71.801521		-21.307404		12.124955		59.316141		107.206300		-18.102566		-8.016752		7.533015		
0.089369		3.580609		-13.827081		89.057734		0.073015		1.772995		1.776524		75.359469		-0.910104		1.712965		-145.508868		24.640763		7.142715		21.135217		76.607122		-8.368023		19.673180		-146.056132		17.105359		23.315288		24.865487		-48.283575		0.396392		5.739766		39.972608		1.461993		-4.904343		67.949922		-26.813376		0.056087		79.601521		108.593946		-5.812568		-14.922252		-9.172889		72.090869		-21.238597		12.087869		59.335711		107.208220		-18.110172		-7.981803		7.682059		
0.091540		3.608624		-13.890114		88.920525		0.072896		1.774062		1.773507		74.892569		-0.816082		1.772378		-145.271648		24.638740		7.236375		21.249572		76.316741		-8.385193		19.627121		-145.869567		16.516073		23.355735		24.923769		-48.122023		0.385785		5.859537		39.870006		1.432131		-4.845973		68.564570		-26.810710		0.318236		79.568628		108.822579		-5.731870		-14.851320		-9.178590		72.362303		-21.167517		12.038139		59.361956		107.193631		-18.114872		-7.948028		7.840611		
0.093712		3.623567		-13.954321		88.782723		0.072759		1.775124		1.770445		74.423843		-0.729095		1.849730		-145.033928		24.633498		7.338002		21.373099		76.047101		-8.384487		19.579954		-145.676861		15.868510		23.434092		24.993965		-47.953070		0.366930		5.965356		39.759434		1.405238		-4.784425		69.165983		-26.793577		0.573779		79.526081		109.079678		-5.659162		-14.767511		-9.187966		72.615802		-21.091202		11.977846		59.395492		107.158835		-18.116518		-7.914099		8.005095		
0.095884		3.625650		-14.012415		88.647160		0.072608		1.776177		1.767335		73.947229		-0.656723		1.942904		-144.797707		24.628132		7.454337		21.516704		75.788635		-8.368321		19.539371		-145.483911		15.143149		23.552532		25.091302		-47.784837		0.345763		6.054155		39.623295		1.372967		-4.716671		69.758269		-26.759424		0.827158		79.489417		109.376104		-5.592314		-14.669495		-9.199657		72.852882		-21.023609		11.900419		59.433008		107.097248		-18.117422		-7.877228		8.185531		
0.098056		3.618491		-14.070678		88.523891		0.072447		1.777209		1.764170		73.469834		-0.610035		2.053648		-144.554030		24.542424		7.600838		22.230331		75.544160		-8.332555		19.518776		-145.278668		14.245302		23.711811		26.100833		-47.612307		0.334175		6.110233		39.468445		1.330732		-4.628072		70.329962		-26.635722		0.987806		79.464682		110.021510		-5.428276		-14.579786		-9.306057		73.076939		-20.994213		11.845299		59.482632		106.872648		-18.341562		-7.820227		8.954905		
0.100227		3.600761		-14.145090		88.417815		0.072282		1.778230		1.760947		73.005289		-0.576584		2.192593		-144.288634		24.256639		7.772384		24.299005		75.332070		-8.275812		19.512042		-145.028395		13.070736		23.902172		29.295538		-47.418043		0.331323		6.120895		39.328331		1.285770		-4.507893		70.856137		-26.340839		0.922015		79.431872		111.418383		-5.005289		-14.534215		-9.639640		73.289613		-21.014631		11.894345		59.563146		106.303772		-19.124494		-7.727182		11.130583		
0.102399		3.525560		-14.239670		88.234055		0.072108		1.779226		1.757736		72.573874		-0.499402		2.376168		-144.048130		24.295060		7.804738		24.317232		75.121406		-8.248600		19.374886		-144.836311		12.355602		24.041991		29.246149		-47.195037		0.222206		6.202507		39.218755		1.294997		-4.473336		71.425118		-26.367474		1.201849		79.366288		111.438719		-4.911801		-14.386563		-9.621421		73.491058		-20.914194		11.838348		59.593665		106.278002		-19.165404		-7.730899		11.148842		
0.104571		3.453317		-14.286527		88.100285		0.071894		1.780268		1.754428		72.070714		-0.475089		2.555674		-143.810080		24.295491		7.893272		24.343749		74.886868		-8.168574		19.248691		-144.623155		11.454665		24.178385		29.208038		-47.012123		0.153146		6.234444		39.033028		1.263609		-4.421218		71.949174		-26.356370		1.479401		79.344900		111.496487		-4.836690		-14.215459		-9.594397		73.683847		-20.822362		11.746809		59.627874		106.210790		-19.205113		-7.715764		11.171797		
0.106742		3.368050		-14.344874		87.951594		0.071701		1.781278		1.751102		71.586848		-0.440906		2.750170		-143.573644		24.301230		7.995133		24.378513		74.670971		-8.102091		19.102961		-144.410336		10.575915		24.287433		29.197541		-46.813246		0.068395		6.268563		38.858756		1.236992		-4.368904		72.468423		-26.328215		1.746413		79.319280		111.573531		-4.766855		-14.027275		-9.555346		73.863275		-20.738983		11.661205		59.670435		106.125097		-19.238400		-7.694247		11.196695		
0.108914		3.262134		-14.399922		87.802805		0.071509		1.782281		1.747752		71.098696		-0.418629		2.966112		-143.337985		24.310625		8.108812		24.421689		74.456406		-8.023297		18.928321		-144.192211		9.648890		24.365093		29.207700		-46.613202		-0.026496		6.279398		38.664414		1.208849		-4.312720		72.988141		-26.306032		2.026884		79.299664		111.666040		-4.690952		-13.816804		-9.499517		74.027910		-20.667662		11.570149		59.717172		106.019643		-19.276954		-7.664741		11.221455		
0.111086		3.149271		-14.455058		87.657493		0.071329		1.783264		1.744396		70.611733		-0.403636		3.187686		-143.104580		24.320315		8.235165		24.473222		74.254088		-7.937388		18.736695		-143.970224		8.688457		24.396864		29.240741		-46.410563		-0.123050		6.278258		38.455666		1.179441		-4.252526		73.506967		-26.279493		2.315163		79.281539		111.765382		-4.613788		-13.583179		-9.429833		74.189392		-20.612312		11.479120		59.765337		105.896869		-19.322482		-7.626798		11.246295		
0.113258		3.038026		-14.517460		87.519836		0.071170		1.784210		1.741045		70.136881		-0.386387		3.404148		-142.873236		24.328258		8.361324		24.529925		74.074115		-7.848192		18.535772		-143.743993		7.726518		24.380414		29.291060		-46.194953		-0.217430		6.272964		38.241017		1.154531		-4.192442		74.013937		-26.246294		2.608947		79.252297		111.865788		-4.536584		-13.334736		-9.350962		74.352550		-20.562230		11.400859		59.815145		105.762870		-19.372929		-7.581643		11.270094		
0.115429		2.944607		-14.611720		87.413406		0.071063		1.785117		1.737707		69.696795		-0.364950		3.581776		-142.627017		24.323825		8.455127		24.576062		73.923747		-7.753411		18.346786		-143.512483		6.920873		24.343653		29.334688		-45.945674		-0.296268		6.271104		38.043875		1.144151		-4.145795		74.467911		-26.212330		2.861992		79.235952		111.949243		-4.469438		-13.129081		-9.281398		74.518454		-20.505511		11.347104		59.873136		105.647015		-19.418329		-7.542659		11.287219		
0.117601		2.921271		-14.798212		87.377996		0.071124		1.785986		1.734430		69.347280		-0.339011		3.623993		-142.328236		24.280480		8.479293		24.580175		73.830449		-7.671342		18.237777		-143.285585		6.664014		24.337591		29.334887		-45.630860		-0.323906		6.316620		37.934848		1.162497		-4.136814		74.801180		-26.158000		2.927166		79.320506		111.969995		-4.454514		-13.090468		-9.265503		74.706655		-20.460556		11.322899		59.946704		105.613841		-19.434400		-7.540145		11.288171		
